<svg width="43" height="64" fill="none" xmlns="http://www.w3.org/2000/svg">
    <path d="M18.75 51.5h5c.69 0 1.25-.56 1.25-1.25V46.5h3.75c.69 0 1.25-.56 1.25-1.25v-5c0-.69-.56-1.25-1.25-1.25H25v-3.75c0-.69-.56-1.25-1.25-1.25h-5c-.69 0-1.25.56-1.25 1.25V39h-3.75c-.69 0-1.25.56-1.25 1.25v5c0 .69.56 1.25 1.25 1.25h3.75v3.75c0 .69.56 1.25 1.25 1.25zM15 44v-2.5h3.75c.69 0 1.25-.56 1.25-1.25V36.5h2.5v3.75c0 .69.56 1.25 1.25 1.25h3.75V44h-3.75c-.69 0-1.25.56-1.25 1.25V49H20v-3.75c0-.69-.56-1.25-1.25-1.25H15zM35.375 58.125a1.25 1.25 0 1 0 0-2.5 1.25 1.25 0 0 0 0 2.5z" fill="#5B2AF5"/>
    <path d="M38.17 53.49A1.25 1.25 0 0 0 39.87 53 21.273 21.273 0 0 0 42.5 42.75c0-10.492-5.254-16.14-10.335-21.601-4.97-5.344-9.665-10.39-9.665-19.899a1.25 1.25 0 0 0-2.5 0c0 9.508-4.695 14.555-9.665 19.899C5.254 26.61 0 32.259 0 42.75 0 54.467 9.533 64 21.25 64c3.585 0 7.13-.91 10.25-2.63a1.25 1.25 0 0 0-1.207-2.19 18.767 18.767 0 0 1-9.043 2.32C10.911 61.5 2.5 53.089 2.5 42.75c0-9.508 4.695-14.555 9.665-19.899 3.57-3.838 7.227-7.768 9.085-13.407 1.858 5.638 5.514 9.569 9.085 13.407C35.305 28.195 40 33.241 40 42.75c0 3.164-.802 6.29-2.32 9.042a1.25 1.25 0 0 0 .49 1.699z" fill="#5B2AF5"/>
</svg>
