<?xml version="1.0" encoding="iso-8859-1"?>
<!-- Generator: Adobe Illustrator 18.0.0, SVG Export Plug-In . SVG Version: 6.00 Build 0)  -->
<!DOCTYPE svg PUBLIC "-//W3C//DTD SVG 1.1//EN" "http://www.w3.org/Graphics/SVG/1.1/DTD/svg11.dtd">
<svg version="1.1" id="Capa_1" xmlns="http://www.w3.org/2000/svg" xmlns:xlink="http://www.w3.org/1999/xlink" x="0px" y="0px"
	 viewBox="0 0 449.183 449.183" style="enable-background:new 0 0 449.183 449.183;" xml:space="preserve">
<g>
	<path d="M394.15,201.309c47.48,2.99,64.24,42.32,50.27,74.88c-14.3,33.32-37.41,58.1-74.34,67.01
		c-12.54,3.02-25.24,3.01-37.68,0.95c-17.41-2.88-34.79-6.41-50.71-14.8c-10.19-5.36-20.62-10.25-30.95-15.35
		c-17.52,16-38.98,23.79-59.93,32.63c-39.22,16.55-80.55,19.26-122.29,18.4c-17.23-0.36-33.28-5.78-47.59-16.01
		c-14.47-10.36-20.9-24.63-20.93-41.83c-0.04-23.04,9.19-42.51,26.63-57.09c21.07-17.62,44.7-30.88,72.86-33.03
		c18.52-1.42,36.66,1.67,54.57,6.53c26.45,7.19,50.11,20.3,73.62,33.81c2.17,1.24,4.3,2.56,5.38,3.2
		c26.66-14.07,52.28-28.08,78.34-41.2C337.33,206.359,365.11,199.469,394.15,201.309z M437.01,261.889
		c1.26-4.32,0.95-9.37,0.31-13.94c-3.7-26.68-24.64-37.34-47.99-37.78c-18.14-0.34-36.04,2.88-53.23,8.87
		c-8.75,3.06-17.17,7.05-24.5,10.1c-2.15,10.56-3.93,19.25-5.92,28.99c4.26-1.7,7.2-3.03,10.25-4.07
		c10.94-3.7,21.69-8.36,32.93-10.69c15.63-3.25,31.56-4.11,46.78,3.05c7.75,3.66,11.92,10.03,11.47,18.12
		c-1.03,18.46-3.21,29.12-23.9,38.61c-15.28,7.01-31.03,8.12-47.6,6.72c-28.29-2.37-54.62-9.78-78.11-26.12
		c-8.58-5.96-16.87-12.43-25.91-17.58c-10.94-6.24-22.76-10.92-33.81-16.99c-15.68-8.62-32.44-14.13-49.59-18.65
		c-16.53-4.37-33.47-7.2-50.45-4.99c-26.69,3.48-49.31,16.35-68.55,34.65c-14.05,13.37-20.21,30.58-19.26,50.07
		c0.66,13.35,5.54,24.44,17.06,32.21c10.08,6.79,20.77,12.27,32.97,12.72c16.93,0.63,33.94,0.81,50.85-0.05
		c21.69-1.1,43.06-4.47,63.59-12.32c5.37-2.05,9.58-4.54,12.31-9.5c0.29,1.3,0.59,2.59,1.23,5.45c4.23-3.21,9.18-5.04,10.51-8.33
		c4.62-11.45,7.99-23.4,11.84-35.16c-0.77-0.51-1.53-1.01-2.3-1.51c-3.62,3.18-7.24,6.37-10.87,9.55c-1.73-3.69-4.18-1.38-6.36-0.71
		c-15.19,4.69-30.31,9.57-45.54,14.13c-21.22,6.34-42.91,10.16-65.09,10.25c-11.87,0.05-22.95-3.06-31.84-11.55
		c-15.78-15.06-15.44-26.37,1.24-40.64c17.96-15.36,39.75-20.17,62.43-21.4c18.62-1.01,36.49,3.79,54.24,9.18
		c22.28,6.77,43.37,15.77,62.87,28.61c8.11,5.34,16.75,9.95,25.44,14.32c10.31,5.19,21.1,9.44,31.4,14.66
		c16.72,8.45,34.61,12.88,52.99,14.38c10.63,0.87,22.12,0.67,32.17-2.45C405.95,321.299,426.9,296.329,437.01,261.889z
		 M395.59,268.189c0.64-10.73-1.82-14.35-12.24-16.98c-11.8-2.98-23.95-3.22-35.22,0.97c-20.21,7.53-40,16.21-59.79,24.81
		c-2.73,1.19-4.46,4.71-7.01,7.56c20.37,9.97,40.75,13.57,61.83,14.4c10.92,0.43,21.53-0.46,31.94-4.12
		C390.34,289.489,394.63,284.139,395.59,268.189z M306.25,234.329c-0.83-0.52-1.67-1.03-2.5-1.54c-1.75,1.5-4.75,2.82-5.01,4.55
		c-1.24,8.06-4.69,15.96-3.25,24.97c1.85-0.8,3.44-1.01,3.61-1.63C301.6,251.929,303.9,243.119,306.25,234.329z M290.04,257.059
		c1.3-5.73,2.61-11.46,3.91-17.19c-0.97-0.28-1.94-0.55-2.91-0.82C285.97,244.309,289.32,250.869,290.04,257.059z M281.51,268.379
		c2.27-8.19,3.66-16.63,5.89-27.48c-5.48,3.22-8.67,5.1-11.18,6.57c-0.88,9.01-1.64,16.82-2.4,24.63c0.57,0.49,1.14,0.98,1.7,1.47
		C277.6,271.859,280.93,270.499,281.51,268.379z M268.37,276.549c1.45-8.67,2.85-17.02,4.49-26.82c-12.63,2.99-8.86,13.06-10.6,20.3
		C261.19,274.459,263.9,276.309,268.37,276.549z M257.78,271.129c0.9-5.05,1.74-9.76,2.8-15.69c-4.91,1.94-9,2.59-9.1,7.6
		C251.42,266.519,251.13,270.489,257.78,271.129z M248.9,265.679c-0.06-1.3-0.11-2.6-0.17-3.9c-1.68,0.5-3.36,1.01-5.04,1.52
		c-0.01,0.62-0.02,1.24-0.03,1.86C245.4,265.329,247.15,265.509,248.9,265.679z M241.69,309.039c-3.06-2.29-5.26-3.92-9.14-6.82
		c-1.28,5.37-2.22,9.31-3.16,13.24c0.58,0.35,1.15,0.7,1.73,1.05C234.43,314.169,237.75,311.819,241.69,309.039z M228.99,303.739
		c0.47-1.06-2.62-3.7-5.5-7.5c-3.12,10.63-5.49,18.7-8.32,28.31C228.19,321.819,225.78,310.969,228.99,303.739z M219.78,299.999
		c1.67-4.96-1.32-6.18-5.79-7.58c-3.51,12.37-6.86,24.2-10.32,36.37c4.7,1.09,6.88-1.03,8.01-4.26
		C214.5,316.389,217.03,308.159,219.78,299.999z M202.21,286.169c-2.99-1.59-4.4-2.61-5.98-3.13
		c-16.77-5.52-33.29-12.11-50.42-16.14c-22.43-5.28-45.12-4.87-67.21,3.3c-10.36,3.83-19.57,9.3-26.78,17.73
		c-5.79,6.78-5.76,10.11-0.81,17.37c8.97,13.17,22.49,14.58,36.54,13.7c33.13-2.08,64.35-12.54,95.51-22.9
		C189.32,294.019,194.94,290.009,202.21,286.169z"/>
	<path style="fill:#F7931E;" d="M437.32,247.949c0.64,4.57,0.95,9.62-0.31,13.94c-10.11,34.44-31.06,59.41-65.94,70.21
		c-10.05,3.12-21.54,3.32-32.17,2.45c-18.38-1.5-36.27-5.93-52.99-14.38c-10.3-5.22-21.09-9.47-31.4-14.66
		c-8.69-4.37-17.33-8.98-25.44-14.32c-19.5-12.84-40.59-21.84-62.87-28.61c-17.75-5.39-35.62-10.19-54.24-9.18
		c-22.68,1.23-44.47,6.04-62.43,21.4c-16.68,14.27-17.02,25.58-1.24,40.64c8.89,8.49,19.97,11.6,31.84,11.55
		c22.18-0.09,43.87-3.91,65.09-10.25c15.23-4.56,30.35-9.44,45.54-14.13c2.18-0.67,4.63-2.98,6.36,0.71
		c3.63-3.18,7.25-6.37,10.87-9.55c0.77,0.5,1.53,1,2.3,1.51c-3.85,11.76-7.22,23.71-11.84,35.16c-1.33,3.29-6.28,5.12-10.51,8.33
		c-0.64-2.86-0.94-4.15-1.23-5.45c-2.73,4.96-6.94,7.45-12.31,9.5c-20.53,7.85-41.9,11.22-63.59,12.32
		c-16.91,0.86-33.92,0.68-50.85,0.05c-12.2-0.45-22.89-5.93-32.97-12.72c-11.52-7.77-16.4-18.86-17.06-32.21
		c-0.95-19.49,5.21-36.7,19.26-50.07c19.24-18.3,41.86-31.17,68.55-34.65c16.98-2.21,33.92,0.62,50.45,4.99
		c17.15,4.52,33.91,10.03,49.59,18.65c11.05,6.07,22.87,10.75,33.81,16.99c9.04,5.15,17.33,11.62,25.91,17.58
		c23.49,16.34,49.82,23.75,78.11,26.12c16.57,1.4,32.32,0.29,47.6-6.72c20.69-9.49,22.87-20.15,23.9-38.61
		c0.45-8.09-3.72-14.46-11.47-18.12c-15.22-7.16-31.15-6.3-46.78-3.05c-11.24,2.33-21.99,6.99-32.93,10.69
		c-3.05,1.04-5.99,2.37-10.25,4.07c1.99-9.74,3.77-18.43,5.92-28.99c7.33-3.05,15.75-7.04,24.5-10.1
		c17.19-5.99,35.09-9.21,53.23-8.87C412.68,210.609,433.62,221.269,437.32,247.949z"/>
	<path d="M282.36,84.909c23.7,5.42,34.48,22.82,27.91,46.15c-8.5,30.17-24,56.38-45.26,79.3c-5.65,6.09-11.18,12.3-16.58,18.61
		c-6.65,7.78-8.2,8.13-17.54,4.55c-20.29-7.75-40.12-16.46-58.46-28.19c-22.22-14.22-36.96-34.6-44.83-59.36
		c-9.55-30.07,13.06-57.74,44.65-55.46c8.23,0.59,16.71,1.89,24.38,4.75c6.88,2.56,12.95,7.48,19.07,11.81
		c2.84,1.99,4.94,5.03,7.86,8.12c2.02-2.35,3.59-4.19,5.19-6.01c8.18-9.36,17.36-17.43,29.22-21.84
		C265.86,84.409,273.78,82.949,282.36,84.909z M299.72,129.259c3.11-10.94,2.72-21.07-5.92-29c-8.76-8.04-20.03-9.73-30.41-4.97
		c-15.12,6.91-29.98,15.02-31.37,34.97c-0.39,5.62-6.17,7.25-10.43,3.35c-1.55-1.41-2.69-3.38-3.63-5.29
		c-9.22-18.9-24.75-27.25-45.31-27.9c-4.96-0.15-8.39,1.07-10.6,5.45c0.25-2.15,0.84-4.84-2.7-4.21
		c-15.55,2.76-26.8,23.9-20.06,39.08c2.6-4.46,4.74-8.58,7.31-12.42c5.03-7.56,10.3-14.97,15.48-22.43
		c0.08-0.13,0.17-0.25,0.26-0.38c-6.39,12.05-12.62,24.18-19.22,36.1c-2.87,5.2-4.02,9.82,1.78,15.05
		c2.92-4.73,5.51-9.36,8.55-13.68c2.62-3.74,5.67-7.16,8.58-10.7c-1.21,2.99-2.24,6.07-3.78,8.87c-3.79,6.9-7.87,13.65-11.54,19.96
		c11.96,20.98,20.04,29.55,39.33,40.51c11.3,6.41,22.89,12.33,34.57,18.02c5.36,2.61,11.25,4.12,16.41,5.95
		c5.89-6.38,10.71-11.75,15.69-16.96C274.49,185.789,291.04,159.909,299.72,129.259z"/>
	<path style="fill:#F7931E;" d="M303.75,232.789c0.83,0.51,1.67,1.02,2.5,1.54c-2.35,8.79-4.65,17.6-7.15,26.35
		c-0.17,0.62-1.76,0.83-3.61,1.63c-1.44-9.01,2.01-16.91,3.25-24.97C299,235.609,302,234.289,303.75,232.789z"/>
	<path style="fill:#C1272D;" d="M293.8,100.259c8.64,7.93,9.03,18.06,5.92,29c-8.68,30.65-25.23,56.53-47.01,79.37
		c-4.98,5.21-9.8,10.58-15.69,16.96c-5.16-1.83-11.05-3.34-16.41-5.95c-11.68-5.69-23.27-11.61-34.57-18.02
		c-19.29-10.96-27.37-19.53-39.33-40.51c3.67-6.31,7.75-13.06,11.54-19.96c1.54-2.8,2.57-5.88,3.78-8.87
		c0.18-0.21,0.35-0.42,0.52-0.63c0.11-0.28,0.23-0.56,0.34-0.84c1.84-2.25,3.67-4.49,5.51-6.75c-0.73-0.44-1.46-0.89-2.18-1.33
		c-1.11,2.69-2.22,5.38-3.33,8.08c-0.18,0.22-0.36,0.45-0.54,0.67c-0.11,0.27-0.22,0.53-0.32,0.8c-2.91,3.54-5.96,6.96-8.58,10.7
		c-3.04,4.32-5.63,8.95-8.55,13.68c-5.8-5.23-4.65-9.85-1.78-15.05c6.6-11.92,12.83-24.05,19.22-36.1
		c-0.09,0.13-0.18,0.25-0.26,0.38l-0.03-0.02c2.21-4.38,5.64-5.6,10.6-5.45c20.56,0.65,36.09,9,45.31,27.9
		c0.94,1.91,2.08,3.88,3.63,5.29c4.26,3.9,10.04,2.27,10.43-3.35c1.39-19.95,16.25-28.06,31.37-34.97
		C273.77,90.529,285.04,92.219,293.8,100.259z M197.19,200.649c2.92-4.8,5.84-9.6,8.76-14.4c-0.74-0.44-1.48-0.88-2.22-1.32
		c-2.91,4.8-5.82,9.61-8.73,14.42C195.73,199.779,196.46,200.219,197.19,200.649z M188.86,190.709c3.33-5.2,6.65-10.39,9.97-15.58
		c-0.64-0.39-1.29-0.77-1.93-1.15c-3.43,5.16-6.86,10.32-10.29,15.48C187.36,189.869,188.11,190.289,188.86,190.709z M175.6,186.899
		c7.65-6.9,16.69-22.1,17.82-29.53C186.27,167.509,178.99,176.049,175.6,186.899z M157.59,170.259
		c6.08-10.21,12.16-20.42,18.24-30.64c-0.73-0.37-1.46-0.75-2.19-1.13c-6.97,9.68-14.28,19.17-17.96,30.68
		C156.32,169.529,156.96,169.899,157.59,170.259z M169.94,179.199c6.33-10.58,12.27-20.52,18.21-30.46
		C175.7,158.629,169.09,170.549,169.94,179.199z"/>
	<path style="fill:#F7931E;" d="M293.95,239.869c-1.3,5.73-2.61,11.46-3.91,17.19c-0.72-6.19-4.07-12.75,1-18.01
		C292.01,239.319,292.98,239.589,293.95,239.869z"/>
	<path style="fill:#F7931E;" d="M287.4,240.899c-2.23,10.85-3.62,19.29-5.89,27.48c-0.58,2.12-3.91,3.48-5.99,5.19
		c-0.56-0.49-1.13-0.98-1.7-1.47c0.76-7.81,1.52-15.62,2.4-24.63C278.73,245.999,281.92,244.119,287.4,240.899z"/>
	<path style="fill:#F7931E;" d="M272.86,249.729c-1.64,9.8-3.04,18.15-4.49,26.82c-4.47-0.24-7.18-2.09-6.11-6.52
		C264,262.789,260.23,252.719,272.86,249.729z"/>
	<path style="fill:#F7931E;" d="M260.58,255.439c-1.06,5.93-1.9,10.64-2.8,15.69c-6.65-0.64-6.36-4.61-6.3-8.09
		C251.58,258.029,255.67,257.379,260.58,255.439z"/>
	<path style="fill:#F7931E;" d="M248.73,261.779c0.06,1.3,0.11,2.6,0.17,3.9c-1.75-0.17-3.5-0.35-5.24-0.52
		c0.01-0.62,0.02-1.24,0.03-1.86C245.37,262.789,247.05,262.279,248.73,261.779z"/>
	<path style="fill:#F7931E;" d="M232.55,302.219c3.88,2.9,6.08,4.53,9.14,6.82c-3.94,2.78-7.26,5.13-10.57,7.47
		c-0.58-0.35-1.15-0.7-1.73-1.05C230.33,311.529,231.27,307.589,232.55,302.219z"/>
	<path style="fill:#F7931E;" d="M223.49,296.239c2.88,3.8,5.97,6.44,5.5,7.5c-3.21,7.23-0.8,18.08-13.82,20.81
		C218,314.939,220.37,306.869,223.49,296.239z"/>
	<path style="fill:#F7931E;" d="M213.99,292.419c4.47,1.4,7.46,2.62,5.79,7.58c-2.75,8.16-5.28,16.39-8.1,24.53
		c-1.13,3.23-3.31,5.35-8.01,4.26C207.13,316.619,210.48,304.789,213.99,292.419z"/>
	<path d="M205.95,186.249c-2.92,4.8-5.84,9.6-8.76,14.4c-0.73-0.43-1.46-0.87-2.19-1.3c2.91-4.81,5.82-9.62,8.73-14.42
		C204.47,185.369,205.21,185.809,205.95,186.249z"/>
	<path d="M198.83,175.129c-3.32,5.19-6.64,10.38-9.97,15.58c-0.75-0.42-1.5-0.84-2.25-1.25c3.43-5.16,6.86-10.32,10.29-15.48
		C197.54,174.359,198.19,174.739,198.83,175.129z"/>
	<path d="M193.42,157.369c-1.13,7.43-10.17,22.63-17.82,29.53C178.99,176.049,186.27,167.509,193.42,157.369z"/>
	<path d="M175.83,139.619c-6.08,10.22-12.16,20.43-18.24,30.64c-0.63-0.36-1.27-0.73-1.91-1.09c3.68-11.51,10.99-21,17.96-30.68
		C174.37,138.869,175.1,139.249,175.83,139.619z"/>
	<path d="M188.15,148.739c-5.94,9.94-11.88,19.88-18.21,30.46C169.09,170.549,175.7,158.629,188.15,148.739z"/>
	<path d="M168.4,124.059c-1.84,2.26-3.67,4.5-5.51,6.75c1.11-2.7,2.22-5.39,3.33-8.08C166.94,123.169,167.67,123.619,168.4,124.059z
		"/>
	<path d="M162.35,131.479c0.18-0.22,0.36-0.45,0.54-0.67c-0.11,0.28-0.23,0.56-0.34,0.84L162.35,131.479z"/>
	<path d="M162.55,131.649c-0.17,0.21-0.34,0.42-0.52,0.63c0.1-0.27,0.21-0.53,0.32-0.8L162.55,131.649z"/>
	<path style="fill:#C1272D;" d="M159.35,101.659c3.54-0.63,2.95,2.06,2.7,4.21l0.03,0.02c-5.18,7.46-10.45,14.87-15.48,22.43
		c-2.57,3.84-4.71,7.96-7.31,12.42C132.55,125.559,143.8,104.419,159.35,101.659z"/>
</g>
<g>
</g>
<g>
</g>
<g>
</g>
<g>
</g>
<g>
</g>
<g>
</g>
<g>
</g>
<g>
</g>
<g>
</g>
<g>
</g>
<g>
</g>
<g>
</g>
<g>
</g>
<g>
</g>
<g>
</g>
</svg>
