<?xml version="1.0" encoding="iso-8859-1"?>
<!-- Generator: Adobe Illustrator 18.0.0, SVG Export Plug-In . SVG Version: 6.00 Build 0)  -->
<!DOCTYPE svg PUBLIC "-//W3C//DTD SVG 1.1//EN" "http://www.w3.org/Graphics/SVG/1.1/DTD/svg11.dtd">
<svg version="1.1" id="Capa_1" xmlns="http://www.w3.org/2000/svg" xmlns:xlink="http://www.w3.org/1999/xlink" x="0px" y="0px"
	 viewBox="0 0 197.123 197.123" style="enable-background:new 0 0 197.123 197.123;" xml:space="preserve">
<g>
	<g>
		<ellipse style="fill:#A4CD39;" cx="98.561" cy="161.809" rx="84.694" ry="35.313"/>
		<ellipse style="fill:#8CB131;" cx="98.561" cy="161.809" rx="61.762" ry="21.555"/>
	</g>
	<g>
		<path style="fill:#F6AE4A;" d="M97.502,38.133c-45.157,0-52.863,119.624-52.863,119.624s10.175,12.553,52.863,12.553
			c42.688,0,52.863-12.553,52.863-12.553S142.661,38.133,97.502,38.133z"/>
		<path style="fill:#F6AE4A;" d="M97.502,38.133c-45.157,0-52.863,119.624-52.863,119.624s10.175,12.553,52.863,12.553
			c42.688,0,52.863-12.553,52.863-12.553S142.661,38.133,97.502,38.133z"/>
		<path style="fill:#F9C764;" d="M97.502,38.133c-33.908,0-39.694,117.069-39.694,117.069s7.64,12.285,39.694,12.285
			c32.055,0,39.694-12.285,39.694-12.285S131.412,38.133,97.502,38.133z"/>
		<path style="fill:#D94C26;" d="M149.501,148.088c-10.605,3.658-30.192,9.169-51.999,9.169c-21.806,0-41.393-5.511-51.999-9.169
			c-0.627,6.017-0.864,9.669-0.864,9.669s10.175,12.553,52.863,12.553c42.688,0,52.863-12.553,52.863-12.553
			S150.129,154.105,149.501,148.088z"/>
		<circle style="fill:#661A00;" cx="98.796" cy="63.943" r="11.836"/>
		<g>
			<g>
				<path style="fill:#D94C26;" d="M92.422,70.463l-44.164,44.164c20.323,20.323,23.645,15.829,31.462,3.713
					C87.537,106.224,104.734,82.775,92.422,70.463z"/>
				<g>
					<path style="fill:#F4A140;" d="M63.77,104.784l11.467,11.467c0.501-0.694,1.014-1.422,1.563-2.212
						c1.128-1.627,2.5-3.542,3.938-5.625L70.439,98.115L63.77,104.784z"/>
					<path style="fill:#F4A140;" d="M88.527,95.246c2.663-5.929,3.624-11.604,0.004-15.223l-7.613,7.613L88.527,95.246z"/>
					<path style="fill:#F4A140;" d="M79.012,89.542l-6.668,6.668l9.936,9.935c1.768-2.647,3.527-5.489,5.004-8.333L79.012,89.542z"
						/>
					<path style="fill:#F4A140;" d="M61.865,106.689l-6.685,6.685c10.437,10.438,14.11,10.227,18.41,5.04L61.865,106.689z"/>
				</g>
				<path style="fill:#C04320;" d="M92.422,70.463l-44.164,44.164C27.936,94.304,32.43,90.982,44.546,83.166
					C56.662,75.349,80.111,58.153,92.422,70.463z"/>
				<g>
					<path style="fill:#F2912C;" d="M58.103,99.117L46.635,87.649c0.695-0.501,1.422-1.015,2.212-1.563
						c1.627-1.129,3.542-2.5,5.625-3.938l10.299,10.299L58.103,99.117z"/>
					<path style="fill:#F2912C;" d="M67.641,74.359c5.928-2.662,11.603-3.623,15.223-0.004l-7.613,7.613L67.641,74.359z"/>
					<path style="fill:#F2912C;" d="M73.345,83.874l-6.668,6.669l-9.936-9.936c2.648-1.769,5.489-3.526,8.333-5.004L73.345,83.874z"
						/>
					<path style="fill:#F2912C;" d="M56.197,101.022l-6.685,6.685c-10.437-10.438-10.228-14.109-5.04-18.41L56.197,101.022z"/>
				</g>
			</g>
			<g>
				<path style="fill:#D94C26;" d="M104.7,58.187l44.164-44.164C128.541-6.3,125.218-1.806,117.402,10.31
					C109.585,22.425,92.388,45.876,104.7,58.187z"/>
				<g>
					<path style="fill:#F4A140;" d="M133.352,23.867l-11.467-11.468c-0.502,0.695-1.015,1.423-1.562,2.213
						c-1.129,1.627-2.501,3.542-3.938,5.624l10.3,10.3L133.352,23.867z"/>
					<path style="fill:#F4A140;" d="M108.595,33.405c-2.662,5.929-3.624,11.604-0.004,15.223l7.613-7.613L108.595,33.405z"/>
					<path style="fill:#F4A140;" d="M118.11,39.109l6.668-6.668l-9.936-9.935c-1.768,2.648-3.526,5.489-5.004,8.332L118.11,39.109z"
						/>
					<path style="fill:#F4A140;" d="M135.257,21.962l6.686-6.685c-10.438-10.439-14.11-10.228-18.41-5.04L135.257,21.962z"/>
				</g>
				<path style="fill:#C04320;" d="M104.7,58.187l44.164-44.164c20.322,20.323,15.828,23.646,3.713,31.462
					C140.46,53.301,117.01,70.498,104.7,58.187z"/>
				<g>
					<path style="fill:#F2912C;" d="M139.019,29.534l11.468,11.468c-0.694,0.501-1.422,1.015-2.212,1.563
						c-1.628,1.129-3.542,2.5-5.625,3.938l-10.299-10.299L139.019,29.534z"/>
					<path style="fill:#F2912C;" d="M129.481,54.292c-5.928,2.662-11.602,3.623-15.223,0.004l7.613-7.614L129.481,54.292z"/>
					<path style="fill:#F2912C;" d="M123.777,44.777l6.669-6.669l9.936,9.936c-2.648,1.769-5.489,3.526-8.333,5.004L123.777,44.777z
						"/>
					<path style="fill:#F2912C;" d="M140.924,27.628l6.686-6.685c10.438,10.438,10.228,14.109,5.04,18.41L140.924,27.628z"/>
				</g>
			</g>
			<g>
				<path style="fill:#D94C26;" d="M92.422,58.187L48.259,14.023C27.936,34.346,32.43,37.669,44.546,45.485
					S80.111,70.498,92.422,58.187z"/>
				<g>
					<path style="fill:#F4A140;" d="M58.103,29.534L46.635,41.002c0.695,0.501,1.422,1.015,2.212,1.563
						c1.627,1.129,3.542,2.5,5.625,3.938l10.299-10.299L58.103,29.534z"/>
					<path style="fill:#F4A140;" d="M67.641,54.292c5.928,2.662,11.603,3.623,15.223,0.004l-7.613-7.614L67.641,54.292z"/>
					<path style="fill:#F4A140;" d="M73.345,44.777l-6.668-6.669l-9.936,9.936c2.648,1.769,5.489,3.526,8.333,5.004L73.345,44.777z"
						/>
					<path style="fill:#F4A140;" d="M56.197,27.628l-6.685-6.685c-10.437,10.438-10.228,14.109-5.04,18.41L56.197,27.628z"/>
				</g>
				<path style="fill:#C04320;" d="M92.422,58.187L48.259,14.023C68.582-6.3,71.904-1.806,79.721,10.31
					C87.537,22.425,104.734,45.876,92.422,58.187z"/>
				<g>
					<path style="fill:#F2912C;" d="M63.77,23.867l11.467-11.468c0.501,0.695,1.014,1.423,1.563,2.213
						c1.128,1.627,2.5,3.542,3.938,5.624l-10.299,10.3L63.77,23.867z"/>
					<path style="fill:#F2912C;" d="M88.527,33.405c2.663,5.929,3.624,11.604,0.004,15.223l-7.613-7.613L88.527,33.405z"/>
					<path style="fill:#F2912C;" d="M79.012,39.109l-6.668-6.668l9.936-9.935c1.768,2.648,3.527,5.489,5.004,8.332L79.012,39.109z"
						/>
					<path style="fill:#F2912C;" d="M61.865,21.962l-6.685-6.685c10.437-10.439,14.11-10.228,18.41-5.04L61.865,21.962z"/>
				</g>
			</g>
			<g>
				<path style="fill:#D94C26;" d="M104.7,70.463l44.164,44.164c20.322-20.323,15.828-23.646,3.713-31.462
					C140.46,75.349,117.01,58.153,104.7,70.463z"/>
				<g>
					<path style="fill:#F4A140;" d="M139.019,99.117l11.468-11.468c-0.694-0.501-1.422-1.015-2.212-1.563
						c-1.628-1.129-3.542-2.5-5.625-3.938l-10.299,10.299L139.019,99.117z"/>
					<path style="fill:#F4A140;" d="M129.481,74.359c-5.928-2.662-11.602-3.623-15.223-0.004l7.613,7.613L129.481,74.359z"/>
					<path style="fill:#F4A140;" d="M123.777,83.874l6.669,6.669l9.936-9.936c-2.648-1.769-5.489-3.526-8.333-5.004L123.777,83.874z
						"/>
					<path style="fill:#F4A140;" d="M140.924,101.022l6.686,6.685c10.438-10.438,10.228-14.109,5.04-18.41L140.924,101.022z"/>
				</g>
				<path style="fill:#C04320;" d="M104.7,70.463l44.164,44.164c-20.323,20.323-23.646,15.829-31.462,3.713
					C109.585,106.224,92.388,82.775,104.7,70.463z"/>
				<g>
					<path style="fill:#F2912C;" d="M133.352,104.784l-11.467,11.467c-0.502-0.694-1.015-1.422-1.562-2.212
						c-1.129-1.627-2.501-3.542-3.938-5.625l10.3-10.299L133.352,104.784z"/>
					<path style="fill:#F2912C;" d="M108.595,95.246c-2.662-5.929-3.624-11.604-0.004-15.223l7.613,7.613L108.595,95.246z"/>
					<path style="fill:#F2912C;" d="M118.11,89.542l6.668,6.668l-9.936,9.935c-1.768-2.647-3.526-5.489-5.004-8.333L118.11,89.542z"
						/>
					<path style="fill:#F2912C;" d="M135.257,106.689l6.686,6.685c-10.438,10.438-14.11,10.227-18.41,5.04L135.257,106.689z"/>
				</g>
			</g>
		</g>
		<g>
			<path style="fill:#C04320;" d="M58.841,152.082c-5.268-1.355-9.809-2.776-13.337-3.993c-0.627,6.017-0.864,9.669-0.864,9.669
				s3.159,3.883,13.298,7.33C58.084,162.486,58.367,157.947,58.841,152.082z"/>
			<path style="fill:#C04320;" d="M149.501,148.088c-3.528,1.217-8.068,2.638-13.337,3.993c0.474,5.865,0.757,10.404,0.903,13.006
				c10.14-3.447,13.298-7.33,13.298-7.33S150.129,154.105,149.501,148.088z"/>
		</g>
		<circle style="fill:#C04320;" cx="98.796" cy="120.066" r="13.994"/>
		<circle style="fill:#D94C26;" cx="98.796" cy="120.066" r="12.936"/>
		<circle style="fill:#C04320;" cx="98.796" cy="120.066" r="9.975"/>
		<circle style="fill:#C1E8FB;" cx="98.796" cy="120.066" r="9.173"/>
		<g>
			<path style="fill:#FFFFFF;" d="M96.562,111.199l-6.725,6.932c-0.135,0.625-0.214,1.27-0.214,1.936
				c0,0.094,0.025,0.182,0.028,0.276l8.953-9.431C97.899,110.927,97.22,111.034,96.562,111.199z"/>
			<path style="fill:#FFFFFF;" d="M103.171,112.05c-0.857-0.469-1.781-0.82-2.776-0.996l-10.573,10.897
				c0.22,1.052,0.641,2.023,1.188,2.908L103.171,112.05z"/>
		</g>
	</g>
</g>
<g>
</g>
<g>
</g>
<g>
</g>
<g>
</g>
<g>
</g>
<g>
</g>
<g>
</g>
<g>
</g>
<g>
</g>
<g>
</g>
<g>
</g>
<g>
</g>
<g>
</g>
<g>
</g>
<g>
</g>
</svg>
