<svg width="110" height="172" viewBox="0 0 110 172" fill="none" xmlns="http://www.w3.org/2000/svg">
<path d="M4.31348 97.3883L4.52148 95.2389C9.51367 94.4069 13.1423 92.4886 15.4072 89.484C17.1637 87.2653 18.042 82.8509 18.042 76.2409V23.8922C18.042 19.917 17.8109 16.9586 17.3486 15.0172C16.9326 13.0296 16.0775 11.3193 14.7832 9.88638C12.472 7.29784 9.05143 5.63378 4.52148 4.8942V2.74478C6.27799 2.83723 7.17936 2.88345 7.22559 2.88345L15.3379 3.29947C17.9727 3.43814 20.7923 3.50748 23.7969 3.50748C29.2051 3.50748 35.0755 3.23013 41.4082 2.67545C47.2786 2.21321 51.6237 1.98209 54.4434 1.98209C61.8392 1.98209 68.5417 3.13769 74.5508 5.44888C80.5599 7.71386 85.7601 10.9726 90.1514 15.2253C94.5889 19.4779 98.0094 24.5394 100.413 30.4098C102.817 36.2803 104.019 42.7285 104.019 49.7545C104.019 56.8268 102.771 63.3675 100.274 69.3766C97.8245 75.3395 94.2884 80.4473 89.666 84.6999C85.0898 88.9062 79.6123 92.1419 73.2334 94.4069C66.9007 96.6719 59.8285 97.8044 52.0166 97.8044C49.1507 97.8044 44.5745 97.527 38.2881 96.9723C33.8506 96.5563 29.5286 96.3483 25.3223 96.3483C22.3639 96.3483 19.082 96.4407 15.4766 96.6256L6.04688 97.319C5.53841 97.319 4.96061 97.3421 4.31348 97.3883ZM34.2666 19.7321L34.1279 73.3288C34.1279 79.2917 34.6595 83.6136 35.7227 86.2946C36.7396 88.7907 38.4499 90.7321 40.8535 92.1188C43.3034 93.4593 46.2386 94.1295 49.6592 94.1295C54.9749 94.1295 59.8747 93.0433 64.3584 90.8708C68.8421 88.652 72.748 85.5088 76.0762 81.4411C79.4505 77.3271 82.016 72.4736 83.7725 66.8805C85.529 61.2874 86.4072 55.2783 86.4072 48.8532C86.4072 40.3942 84.8356 32.8135 81.6924 26.111C78.5954 19.4085 74.2503 14.1621 68.6572 10.3717C63.1104 6.53515 56.9163 4.61685 50.0752 4.61685C44.667 4.61685 40.6686 5.84179 38.0801 8.29166C35.5378 10.6953 34.2666 14.5088 34.2666 19.7321ZM14.2285 93.8522C18.25 93.4362 21.8786 93.2282 25.1143 93.2282C28.3499 93.2282 31.4701 93.39 34.4746 93.7135L31.7705 91.8415C30.3838 90.917 29.4131 90.0387 28.8584 89.2067C28.3499 88.3747 28.0957 87.2884 28.0957 85.9479C28.0495 85.1621 28.0264 84.3994 28.0264 83.6598V82.4811V17.652V16.4733C28.0264 15.7337 28.0495 14.971 28.0957 14.1852C28.0957 12.7985 28.3037 11.7585 28.7197 11.0651C29.182 10.3717 30.1989 9.44726 31.7705 8.29166L35.4453 5.58755C31.3776 5.95735 27.8646 6.14224 24.9062 6.14224C22.1328 6.14224 18.666 5.98046 14.5059 5.65689L13.2578 5.58755L16.9326 8.29166C18.4118 9.30858 19.3825 10.21 19.8447 10.9958C20.3532 11.7353 20.6074 12.7985 20.6074 14.1852C20.6074 14.6475 20.6074 15.0635 20.6074 15.4333C20.6536 15.803 20.6768 16.1497 20.6768 16.4733V17.652V82.4811V83.6598C20.6768 83.9372 20.6536 84.2607 20.6074 84.6305C20.6074 85.0003 20.6074 85.4394 20.6074 85.9479C20.6074 87.3808 20.3994 88.444 19.9834 89.1374C19.5674 89.7845 18.5505 90.6859 16.9326 91.8415L14.2285 93.8522ZM60.8916 94.1989C66.2074 92.9508 70.7835 91.2174 74.6201 88.9987C78.4567 86.7799 82.0622 83.8216 85.4365 80.1237C93.0635 71.526 96.877 61.3336 96.877 49.5465C96.877 42.4743 95.5365 35.9105 92.8555 29.8551C90.1745 23.7998 86.3148 18.6689 81.2764 14.4626C76.2842 10.21 70.5062 7.18228 63.9424 5.37955C66.4385 6.58137 68.7728 7.94498 70.9453 9.47037C73.1641 10.9495 75.1055 12.5905 76.7695 14.3932C78.4798 16.196 79.959 18.0449 81.207 19.9401C86.5228 28.0293 89.1807 37.6439 89.1807 48.7838C89.1807 54.7005 88.4411 60.3629 86.9619 65.7711C85.4827 71.1794 83.3564 75.8942 80.583 79.9157C78.2256 83.3825 75.4984 86.2253 72.4014 88.444C69.3506 90.6165 65.514 92.5348 60.8916 94.1989Z" fill="#25325E"/>
<path d="M23.8203 143.25C21.7383 145.011 19.5039 145.891 17.1172 145.891C15.2044 145.891 13.6725 145.4 12.5215 144.418C11.3874 143.42 10.8203 142.116 10.8203 140.508C10.8203 138.223 11.9375 136.429 14.1719 135.125C16.4062 133.822 19.6224 133.086 23.8203 132.916V132.205V131.85C23.8203 130.53 23.7611 129.455 23.6426 128.625C23.5241 127.779 23.3548 127.144 23.1348 126.721C22.8809 126.23 22.5169 125.841 22.043 125.553C21.5859 125.248 21.0866 125.096 20.5449 125.096C19.7493 125.096 19.123 125.358 18.666 125.883C18.209 126.391 17.9212 127.187 17.8027 128.27C17.6673 129.336 17.4473 130.064 17.1426 130.453C16.8379 130.826 16.3132 131.012 15.5684 131.012C14.9928 131.012 14.5104 130.809 14.1211 130.403C13.7318 129.996 13.5371 129.472 13.5371 128.828C13.5371 127.965 13.8503 127.187 14.4766 126.493C15.1029 125.782 15.9661 125.223 17.0664 124.817C18.1836 124.41 19.4023 124.207 20.7227 124.207C22.4323 124.207 23.9303 124.554 25.2168 125.248C26.5033 125.925 27.4596 126.873 28.0859 128.092C28.4245 128.718 28.6615 129.421 28.7969 130.2C28.9492 130.978 29.0254 132.053 29.0254 133.424V140.737C29.0254 142.142 29.2285 143.14 29.6348 143.733C30.0579 144.325 30.8451 144.723 31.9961 144.926V145.612H23.8203V143.25ZM23.8203 142.133V133.729C22.1784 133.983 20.765 134.406 19.5801 134.998C18.4121 135.591 17.515 136.344 16.8887 137.258C16.2624 138.172 15.9492 139.179 15.9492 140.28C15.9492 141.397 16.2793 142.328 16.9395 143.073C17.6165 143.8 18.4629 144.164 19.4785 144.164C20.7311 144.164 22.1784 143.487 23.8203 142.133ZM24.6836 144.494H28.4414L27.8574 144.037C27.8574 144.037 27.8405 144.029 27.8066 144.012C27.7897 143.978 27.7728 143.961 27.7559 143.961L27.4258 143.707C27.1719 143.453 27.0449 143.132 27.0449 142.743V142.235L27.0195 141.981V133.348C27.0195 130.995 26.7487 129.235 26.207 128.067C25.4453 126.509 24.252 125.511 22.627 125.071C23.7103 125.832 24.3451 127.043 24.5312 128.702C24.6328 129.717 24.6836 131.291 24.6836 133.424V144.494ZM18.2344 145.18C15.3568 144.588 13.918 143.013 13.918 140.457C13.918 138.799 14.5866 137.377 15.9238 136.192C16.5163 135.667 17.6589 134.998 19.3516 134.186C17.3034 134.575 15.7122 135.108 14.5781 135.785C12.6484 136.97 11.6836 138.536 11.6836 140.483C11.6836 141.888 12.1914 143.03 13.207 143.91C14.2396 144.774 15.5684 145.205 17.1934 145.205C17.5827 145.205 17.9297 145.197 18.2344 145.18ZM18.2344 125.121C17.0495 125.426 16.0931 125.925 15.3652 126.619C14.6543 127.297 14.2988 128.058 14.2988 128.905C14.2988 129.226 14.375 129.48 14.5273 129.666C14.6797 129.853 14.8828 129.946 15.1367 129.946C15.3737 129.946 15.5514 129.878 15.6699 129.743C15.7884 129.59 15.89 129.294 15.9746 128.854C16.1608 127.906 16.3978 127.195 16.6855 126.721C16.9902 126.23 17.5065 125.697 18.2344 125.121ZM47.9414 125.528L49.0078 131.418H48.3223C47.8145 129.489 47.0104 127.974 45.9102 126.873C44.8268 125.756 43.5742 125.198 42.1523 125.198C41.306 125.198 40.5951 125.452 40.0195 125.959C39.4609 126.45 39.1816 127.06 39.1816 127.787C39.1816 128.465 39.4017 129.023 39.8418 129.463C40.2988 129.886 41.3145 130.53 42.8887 131.393C45.4616 132.798 47.2559 133.907 48.2715 134.719C49.8796 135.955 50.6836 137.563 50.6836 139.543C50.6836 140.542 50.4889 141.439 50.0996 142.235C49.7103 143.03 49.1348 143.724 48.373 144.317C47.6113 144.909 46.7057 145.358 45.6562 145.662C44.6068 145.984 43.4642 146.145 42.2285 146.145C40.1803 146.145 37.7259 145.679 34.8652 144.748L34.2559 137.03H34.8652C36.3887 142.294 38.7585 144.926 41.9746 144.926C43.1087 144.926 44.0397 144.588 44.7676 143.91C45.5124 143.233 45.8848 142.345 45.8848 141.244C45.8848 140.127 45.4531 139.23 44.5898 138.553C44.082 138.147 42.8294 137.394 40.832 136.293C38.8346 135.193 37.4635 134.33 36.7188 133.703C35.5169 132.705 34.916 131.435 34.916 129.895C34.916 128.236 35.5592 126.89 36.8457 125.858C38.1491 124.808 39.8249 124.284 41.873 124.284C43.498 124.284 45.5208 124.698 47.9414 125.528ZM43.9551 145.18C45.4785 144.977 46.6719 144.444 47.5352 143.58C48.3984 142.717 48.8301 141.617 48.8301 140.28C48.8301 138.959 48.3392 137.791 47.3574 136.776C46.5111 135.879 44.8776 134.795 42.457 133.526C40.4596 132.442 39.1139 131.571 38.4199 130.91C37.7428 130.25 37.4043 129.489 37.4043 128.625C37.4043 127.322 38.1406 126.162 39.6133 125.147C38.3776 125.553 37.4212 126.162 36.7441 126.975C36.084 127.787 35.7539 128.727 35.7539 129.793C35.7539 131.046 36.194 132.07 37.0742 132.866C37.7513 133.492 39.1139 134.381 41.1621 135.532C43.3796 136.733 44.793 137.614 45.4023 138.172C46.2995 138.985 46.748 140 46.748 141.219C46.748 143.132 45.8171 144.452 43.9551 145.18ZM35.6016 144.088L36.0586 144.241C36.7188 144.494 37.4805 144.723 38.3438 144.926L38.9023 145.053C38.1068 144.528 37.4551 144.004 36.9473 143.479C36.4395 142.937 35.9062 142.218 35.3477 141.321L35.6016 144.088ZM61.3477 135.938L68.6348 129.692C69.8027 128.676 70.3867 127.83 70.3867 127.153C70.3867 126.171 69.4811 125.621 67.6699 125.502V124.817H77.4453V125.502C76.4297 125.604 75.3971 125.934 74.3477 126.493C73.3151 127.051 72.1302 127.914 70.793 129.082C70.5898 129.252 70.446 129.379 70.3613 129.463C70.2767 129.531 70.2174 129.573 70.1836 129.59L67.4668 131.875L73.8906 140.534L74.373 141.194C75.321 142.446 76.1758 143.36 76.9375 143.936C77.7161 144.494 78.5794 144.825 79.5273 144.926V145.612H66.2988V144.926C68.11 144.808 69.0156 144.274 69.0156 143.327C69.0156 142.785 68.6771 142.049 68 141.118L67.5938 140.559L63.6328 135.1L61.3477 137.055V140.737C61.3477 142.142 61.5508 143.14 61.957 143.733C62.3802 144.325 63.1673 144.723 64.3184 144.926V145.612H53.1719V144.926C54.3229 144.723 55.11 144.334 55.5332 143.758C55.9564 143.166 56.168 142.159 56.168 140.737V116.209C56.168 114.787 55.9479 113.78 55.5078 113.188C55.0846 112.578 54.306 112.189 53.1719 112.02V111.461L61.3477 110.522V135.938ZM55.7109 144.494H60.7891L60.1797 144.037C60.1458 144.004 60.112 143.978 60.0781 143.961L59.748 143.707C59.5111 143.47 59.3841 143.149 59.3672 142.743V142.235V141.981V111.588L55.2031 112.045L56.1934 112.756C56.2103 112.756 56.2441 112.782 56.2949 112.832L56.625 113.086C56.7943 113.205 56.9043 113.382 56.9551 113.619C57.0059 113.84 57.0312 114.237 57.0312 114.813V141.981C57.0312 142.675 56.9974 143.106 56.9297 143.276C56.862 143.445 56.6589 143.674 56.3203 143.961C56.3203 143.961 56.3034 143.97 56.2695 143.987C56.2526 144.004 56.2441 144.021 56.2441 144.037L55.7109 144.494ZM75.1602 144.444C74.1445 143.885 73.0612 142.819 71.9102 141.244L65.9434 133.094L64.2676 134.541L68.5586 140.407C69.4219 141.608 69.8535 142.548 69.8535 143.225C69.8535 143.648 69.6673 144.054 69.2949 144.444H75.1602ZM71.0723 127.711C71.8001 126.983 72.6465 126.281 73.6113 125.604H70.2598C70.8691 126.095 71.1738 126.594 71.1738 127.102C71.1738 127.17 71.14 127.373 71.0723 127.711ZM89.4805 145.18L82.0156 129.793L81.7617 129.26C81.0677 127.821 80.4668 126.848 79.959 126.34C79.4681 125.832 78.8418 125.553 78.0801 125.502V124.817H89.3027V125.502C88.4225 125.604 87.7962 125.782 87.4238 126.035C87.0514 126.289 86.8652 126.679 86.8652 127.203C86.8652 127.627 87.0768 128.287 87.5 129.184L92.0195 138.934L95.9805 129.311C96.4206 128.228 96.6406 127.415 96.6406 126.873C96.6406 126.416 96.4544 126.086 96.082 125.883C95.7096 125.68 95.0749 125.553 94.1777 125.502V124.817H100.475V125.502C99.6283 125.688 99.0273 125.925 98.6719 126.213C98.3333 126.501 97.9609 127.093 97.5547 127.991L97.0977 128.981C97.0638 129.082 97.0299 129.159 96.9961 129.209C96.9792 129.243 96.9538 129.311 96.9199 129.412L89.0996 148.455C88.7441 149.336 88.3548 150.097 87.9316 150.741C87.5254 151.401 87.0853 151.858 86.6113 152.112C86.1543 152.382 85.638 152.518 85.0625 152.518C84.0469 152.518 83.1751 152.103 82.4473 151.274C81.7194 150.461 81.3555 149.446 81.3555 148.227C81.3555 147.381 81.5671 146.695 81.9902 146.17C82.4303 145.662 83.0059 145.409 83.7168 145.409C84.2923 145.409 84.7324 145.561 85.0371 145.866C85.3587 146.17 85.5449 146.61 85.5957 147.186L85.6719 148.075C85.7396 149.107 86.0781 149.623 86.6875 149.623C87.0599 149.623 87.4069 149.403 87.7285 148.963C88.0501 148.54 88.4225 147.795 88.8457 146.729L89.4805 145.18ZM86.7891 151.299H86.5605C85.6634 151.299 85.0033 151.054 84.5801 150.563C84.1738 150.072 83.9707 149.302 83.9707 148.252L83.9961 147.541C83.9961 146.932 83.7168 146.627 83.1582 146.627C82.4811 146.627 82.1426 147.16 82.1426 148.227C82.1426 149.243 82.4303 150.097 83.0059 150.791C83.5983 151.485 84.3177 151.832 85.1641 151.832C85.6549 151.832 86.1966 151.655 86.7891 151.299ZM91.1816 141.625L85.2402 129.285C84.8678 128.49 84.6816 127.838 84.6816 127.33C84.6816 126.603 85.0202 126.019 85.6973 125.578H80.0605C80.5345 125.883 80.9238 126.239 81.2285 126.645C81.5501 127.051 81.9056 127.652 82.2949 128.448L90.0391 144.444L91.1816 141.625Z" fill="#25325E"/>
</svg>
